<svg id="Logo" xmlns="http://www.w3.org/2000/svg" viewBox="0 0 308.3 72.23"><defs><style>.cls-1{isolation:isolate;}.cls-2{fill:#fff;}</style></defs><title>Pivotal-OnDark</title><g class="cls-1"><path class="cls-2" d="M138.88,62h-11V51.45h11V62Zm0,60.42h-11V69.82h11v52.64Z" transform="translate(-70.46 -51.45)"/><path class="cls-2" d="M202.22,69.82l-15.29,45.47c-2.63,7.44-7.31,8.39-11.1,8.39-5.63,0-9-2.59-11-8.38L152.06,77.54h-5V69.82h13.15l13.13,42.27c0.57,1.8.93,2.88,2.52,2.88s2-1.1,2.51-2.88l13.4-42.27h10.48Z" transform="translate(-70.46 -51.45)"/><path class="cls-2" d="M229.25,69.82c14.21,0,24.11,9.37,24.11,22.8v8.27c0,13.41-9.9,22.8-24.11,22.8s-24.12-9.39-24.12-22.8V92.62c0-13.43,9.92-22.8,24.12-22.8m0,45.2c8.5,0,13.76-6.43,13.76-14.13V92.62c0-7.71-5.22-14.14-13.76-14.14-9,0-13.76,6.43-13.76,14.14v8.27c0,7.71,5,14.13,13.76,14.13" transform="translate(-70.46 -51.45)"/><path class="cls-2" d="M341,71.5a93.53,93.53,0,0,0-20.33-2.43c-14.41,0-23.36,9.09-23.36,23.74v5.77c0,14.64,8.94,23.87,23.36,23.87,0.33,0,2.89,0,4.06-.1v-8.84c-0.44,0-3.73.12-4.06,0.12-7.84,0-13.11-6-13.11-15V92.82c0-9,5.27-15,13.11-15a77,77,0,0,1,10.75.68L332,78.58v43.88h11V73.32c0-.94,0-1.3-2-1.82" transform="translate(-70.46 -51.45)"/><rect class="cls-2" x="283.1" width="10.97" height="71.01"/><path class="cls-2" d="M89.72,51.45H70.46v71H81.88V61.32h6.69c1.42,0,2.63.07,3.84,0.09,9.89,0.19,14.74,4.12,14.74,11.81,0,0.31,0,.51,0,0.83,0,7.12-3.91,11.84-14.7,11.84-1,0-2.09,0-3.19,0,0,2.72,0,7.77,0,9.54,1.11,0.05,2.15.1,3.22,0.1,15.48,0,26.41-6.09,26.41-21.36,0-.3,0-0.61,0-0.92,0-15.83-11.91-21.79-29.16-21.79" transform="translate(-70.46 -51.45)"/><path class="cls-2" d="M272.85,58.47V69.82h17.87v8.5H272.85V109c0,4.81,3.07,4.94,7.53,4.94h10.35v8.51h-14c-10.36,0-15-4.15-15-13.46V60Z" transform="translate(-70.46 -51.45)"/></g><path class="cls-2" d="M369.58,117.86a4.59,4.59,0,1,1,4.59,4.6A4.6,4.6,0,0,1,369.58,117.86Zm4.59-4a3.94,3.94,0,1,0,3.92,3.94A3.94,3.94,0,0,0,374.17,113.9Zm-1,6.39h-0.53v-5H374c1.26,0,1.88.58,1.88,1.51a1.47,1.47,0,0,1-1,1.42l1.29,2.05h-0.63l-1.19-1.93-1.19.07v1.86Zm0.9-2.36a1.15,1.15,0,0,0,1.33-1.08c0-.7-0.45-1.06-1.4-1.06h-0.84V118Z" transform="translate(-70.46 -51.45)"/></svg>